<svg width="200" height="201" viewBox="0 0 200 201" fill="none" xmlns="http://www.w3.org/2000/svg">
<g opacity="0.3">
<mask id="path-1-inside-1_2_105" fill="white">
<path d="M171.285 169.92C154.924 186.837 133.121 197.442 109.711 199.869C86.3022 202.295 62.7873 196.387 43.3045 183.185C23.8217 169.983 9.61955 150.332 3.19713 127.691C-3.22528 105.049 -1.4564 80.8684 8.19252 59.4027C17.8414 37.937 34.7521 20.5622 55.9487 10.3358C77.1454 0.109315 101.27 -2.3135 124.077 3.49366C146.883 9.30083 166.911 22.9658 180.636 42.0841C194.361 61.2024 200.903 84.5488 199.111 108.015L197.411 107.885C199.172 84.8191 192.741 61.8709 179.251 43.0788C165.76 24.2866 146.074 10.8546 123.656 5.1465C101.238 -0.561619 77.525 1.81987 56.6898 11.8719C35.8547 21.924 19.2325 39.0024 9.74816 60.102C0.26381 81.2016 -1.47491 104.97 4.83797 127.225C11.1508 149.481 25.1108 168.796 44.2613 181.773C63.4118 194.75 86.5256 200.557 109.536 198.172C132.545 195.787 153.977 185.363 170.059 168.734L171.285 169.92Z"/>
</mask>
<path d="M171.285 169.92C154.924 186.837 133.121 197.442 109.711 199.869C86.3022 202.295 62.7873 196.387 43.3045 183.185C23.8217 169.983 9.61955 150.332 3.19713 127.691C-3.22528 105.049 -1.4564 80.8684 8.19252 59.4027C17.8414 37.937 34.7521 20.5622 55.9487 10.3358C77.1454 0.109315 101.27 -2.3135 124.077 3.49366C146.883 9.30083 166.911 22.9658 180.636 42.0841C194.361 61.2024 200.903 84.5488 199.111 108.015L197.411 107.885C199.172 84.8191 192.741 61.8709 179.251 43.0788C165.76 24.2866 146.074 10.8546 123.656 5.1465C101.238 -0.561619 77.525 1.81987 56.6898 11.8719C35.8547 21.924 19.2325 39.0024 9.74816 60.102C0.26381 81.2016 -1.47491 104.97 4.83797 127.225C11.1508 149.481 25.1108 168.796 44.2613 181.773C63.4118 194.75 86.5256 200.557 109.536 198.172C132.545 195.787 153.977 185.363 170.059 168.734L171.285 169.92Z" stroke="white" stroke-width="2" mask="url(#path-1-inside-1_2_105)"/>
</g>
</svg>
