<svg width="59" height="59" viewBox="0 0 59 59" fill="none" xmlns="http://www.w3.org/2000/svg">
<circle cx="29.5" cy="29.5" r="28.5" stroke="white" stroke-width="2" stroke-dasharray="4 4"/>
<mask id="path-2-inside-1_2_585" fill="white">
<path d="M59 29.5C59 35.7675 57.0038 41.8722 53.3009 46.9289C49.598 51.9856 44.3807 55.7316 38.4056 57.6237C32.4305 59.5157 26.008 59.4556 20.0693 57.452C14.1307 55.4483 8.98451 51.6054 5.37691 46.4802C1.76932 41.355 -0.112191 35.214 0.0051725 28.9476C0.122536 22.6811 2.23267 16.6149 6.02965 11.6284C9.82663 6.64195 15.1131 2.99436 21.1226 1.2145C27.1321 -0.56535 33.5523 -0.384959 39.4524 1.72952L38.7287 3.74886C33.2577 1.78813 27.3043 1.62086 21.7318 3.27129C16.1592 4.92172 11.2572 8.30408 7.7363 12.928C4.21542 17.5519 2.25873 23.177 2.1499 28.9878C2.04107 34.7985 3.78576 40.493 7.13103 45.2455C10.4763 49.998 15.2483 53.5615 20.7551 55.4194C26.2619 57.2774 32.2174 57.3331 37.758 55.5786C43.2987 53.8242 48.1365 50.3506 51.5702 45.6616C55.0039 40.9726 56.8549 35.3118 56.8549 29.5H59Z"/>
</mask>
<path d="M59 29.5C59 35.7675 57.0038 41.8722 53.3009 46.9289C49.598 51.9856 44.3807 55.7316 38.4056 57.6237C32.4305 59.5157 26.008 59.4556 20.0693 57.452C14.1307 55.4483 8.98451 51.6054 5.37691 46.4802C1.76932 41.355 -0.112191 35.214 0.0051725 28.9476C0.122536 22.6811 2.23267 16.6149 6.02965 11.6284C9.82663 6.64195 15.1131 2.99436 21.1226 1.2145C27.1321 -0.56535 33.5523 -0.384959 39.4524 1.72952L38.7287 3.74886C33.2577 1.78813 27.3043 1.62086 21.7318 3.27129C16.1592 4.92172 11.2572 8.30408 7.7363 12.928C4.21542 17.5519 2.25873 23.177 2.1499 28.9878C2.04107 34.7985 3.78576 40.493 7.13103 45.2455C10.4763 49.998 15.2483 53.5615 20.7551 55.4194C26.2619 57.2774 32.2174 57.3331 37.758 55.5786C43.2987 53.8242 48.1365 50.3506 51.5702 45.6616C55.0039 40.9726 56.8549 35.3118 56.8549 29.5H59Z" stroke="white" stroke-width="4" mask="url(#path-2-inside-1_2_585)"/>
</svg>
